<svg width="38" height="38" viewBox="0 0 38 38" fill="none" xmlns="http://www.w3.org/2000/svg">
<g id="el:idea">
<path id="Vector" d="M17.6965 0V6.03006H19.7446V0H17.6963H17.6965ZM9.33297 1.81212L7.65489 2.98705L11.113 7.92534L12.7901 6.75038L9.33297 1.81212ZM28.1077 1.81212L24.6506 6.75041L26.328 7.92537L29.7861 2.98705L28.108 1.81212H28.1077ZM18.7201 7.67993C13.7096 7.67993 9.64783 10.7226 9.64783 14.4764L14.8023 30.0864H22.6388L27.7928 14.4764C27.7928 10.7226 23.7313 7.67993 18.7206 7.67993H18.7201ZM2.42685 9.48965L1.72705 11.4154L7.3906 13.4774L8.093 11.5525L2.42673 9.48965H2.42685ZM35.0138 9.48965L29.3475 11.5527L30.0475 13.4777L35.7138 11.4155L35.0138 9.48965ZM7.8194 18.2932L1.9959 19.8552L2.52429 21.8322L8.34779 20.2725L7.8195 18.2932H7.8194ZM29.6213 18.2932L29.0933 20.2724L34.9168 21.8319L35.4448 19.8549L29.6213 18.2932V18.2932ZM14.688 31.2243V33.9377H22.7531V31.2248H14.6881L14.688 31.2243ZM14.688 35.2866V38H22.7531V35.2871H14.6881L14.688 35.2866Z" fill="#E1E65C"/>
</g>
</svg>
