<svg width="30" height="30" viewBox="0 0 30 30" fill="none" xmlns="http://www.w3.org/2000/svg">
<g id="Group">
<path id="Vector" d="M29.6666 6.99992V1.66659C29.6666 1.31296 29.5261 0.973824 29.2761 0.723775C29.026 0.473727 28.6869 0.333252 28.3333 0.333252H1.66659C1.31296 0.333252 0.973824 0.473727 0.723775 0.723775C0.473727 0.973824 0.333252 1.31296 0.333252 1.66659V6.99992H29.6666Z" fill="#E1E65C"/>
<path id="Vector_2" d="M0.333252 9.6665V28.3332C0.333252 28.6868 0.473727 29.0259 0.723775 29.276C0.973824 29.526 1.31296 29.6665 1.66659 29.6665H8.33325V9.6665H0.333252Z" fill="#727272"/>
<path id="Vector_3" d="M11 29.6665H28.3333C28.687 29.6665 29.0261 29.526 29.2761 29.276C29.5262 29.0259 29.6667 28.6868 29.6667 28.3332V9.6665H11V29.6665Z" fill="#E1E65C"/>
</g>
</svg>
