<svg width="64" height="64" viewBox="0 0 64 64" fill="none" xmlns="http://www.w3.org/2000/svg">
<g id="Frame 7">
<rect width="64" height="64" rx="32" fill="#383838"/>
<path id="Vector" d="M22.35 26.75V29.625M25.975 25.3125V31.0625M29.6 26.75V29.625M18 22.4375C18 22.0563 18.1528 21.6906 18.4247 21.421C18.6966 21.1515 19.0654 21 19.45 21H39.75C40.1346 21 40.5034 21.1515 40.7753 21.421C41.0472 21.6906 41.2 22.0563 41.2 22.4375V28.9062L47 24.5938V41.125L41.2 36.8125V42.5625C41.2 42.9437 41.0472 43.3094 40.7753 43.579C40.5034 43.8486 40.1346 44 39.75 44H19.45C19.0654 44 18.6966 43.8486 18.4247 43.579C18.1528 43.3094 18 42.9437 18 42.5625V22.4375Z" stroke="white" stroke-width="2.5" stroke-linecap="round" stroke-linejoin="round"/>
</g>
</svg>
