<svg width="64" height="64" viewBox="0 0 64 64" fill="none" xmlns="http://www.w3.org/2000/svg">
<g id="Frame 6">
<rect width="64" height="64" rx="32" fill="#383838"/>
<g id="Group">
<path id="Vector" fill-rule="evenodd" clip-rule="evenodd" d="M34.7269 25.4546C34.3653 25.4546 34.0184 25.5983 33.7627 25.854C33.5069 26.1097 33.3633 26.4566 33.3633 26.8182V37.7273C33.3633 38.089 33.5069 38.4358 33.7627 38.6916C34.0184 38.9473 34.3653 39.091 34.7269 39.091H40.1815C40.5431 39.091 40.89 38.9473 41.1457 38.6916C41.4014 38.4358 41.5451 38.089 41.5451 37.7273V26.8182C41.5451 26.4566 41.4014 26.1097 41.1457 25.854C40.89 25.5983 40.5431 25.4546 40.1815 25.4546H34.7269ZM38.8178 28.1819H36.0906V36.3637H38.8178V28.1819Z" fill="white"/>
<path id="Vector_2" d="M23.8177 25.4546C23.4561 25.4546 23.1092 25.5983 22.8535 25.854C22.5978 26.1097 22.4541 26.4566 22.4541 26.8182C22.4541 27.1799 22.5978 27.5267 22.8535 27.7825C23.1092 28.0382 23.4561 28.1819 23.8177 28.1819H29.2723C29.6339 28.1819 29.9808 28.0382 30.2365 27.7825C30.4923 27.5267 30.6359 27.1799 30.6359 26.8182C30.6359 26.4566 30.4923 26.1097 30.2365 25.854C29.9808 25.5983 29.6339 25.4546 29.2723 25.4546H23.8177ZM23.8177 30.9091C23.4561 30.9091 23.1092 31.0528 22.8535 31.3085C22.5978 31.5643 22.4541 31.9111 22.4541 32.2728C22.4541 32.6344 22.5978 32.9813 22.8535 33.237C23.1092 33.4927 23.4561 33.6364 23.8177 33.6364H29.2723C29.6339 33.6364 29.9808 33.4927 30.2365 33.237C30.4923 32.9813 30.6359 32.6344 30.6359 32.2728C30.6359 31.9111 30.4923 31.5643 30.2365 31.3085C29.9808 31.0528 29.6339 30.9091 29.2723 30.9091H23.8177ZM22.4541 37.7273C22.4541 37.3657 22.5978 37.0188 22.8535 36.7631C23.1092 36.5073 23.4561 36.3637 23.8177 36.3637H29.2723C29.6339 36.3637 29.9808 36.5073 30.2365 36.7631C30.4923 37.0188 30.6359 37.3657 30.6359 37.7273C30.6359 38.089 30.4923 38.4358 30.2365 38.6916C29.9808 38.9473 29.6339 39.091 29.2723 39.091H23.8177C23.4561 39.091 23.1092 38.9473 22.8535 38.6916C22.5978 38.4358 22.4541 38.089 22.4541 37.7273Z" fill="white"/>
<path id="Vector_3" fill-rule="evenodd" clip-rule="evenodd" d="M21.0909 20C20.0059 20 18.9654 20.431 18.1982 21.1982C17.431 21.9654 17 23.0059 17 24.0909V40.4545C17 41.5395 17.431 42.5801 18.1982 43.3473C18.9654 44.1145 20.0059 44.5455 21.0909 44.5455H42.9091C43.9941 44.5455 45.0346 44.1145 45.8018 43.3473C46.569 42.5801 47 41.5395 47 40.4545V24.0909C47 23.0059 46.569 21.9654 45.8018 21.1982C45.0346 20.431 43.9941 20 42.9091 20H21.0909ZM42.9091 22.7273H21.0909C20.7293 22.7273 20.3824 22.8709 20.1267 23.1267C19.8709 23.3824 19.7273 23.7293 19.7273 24.0909V40.4545C19.7273 40.8162 19.8709 41.1631 20.1267 41.4188C20.3824 41.6745 20.7293 41.8182 21.0909 41.8182H42.9091C43.2708 41.8182 43.6176 41.6745 43.8733 41.4188C44.1291 41.1631 44.2727 40.8162 44.2727 40.4545V24.0909C44.2727 23.7293 44.1291 23.3824 43.8733 23.1267C43.6176 22.8709 43.2708 22.7273 42.9091 22.7273Z" fill="white"/>
</g>
</g>
</svg>
