<svg width="32" height="32" viewBox="0 0 32 32" fill="none" xmlns="http://www.w3.org/2000/svg">
<g id="phone_iphone_black_24dp (1) 1">
<path id="Vector" d="M20.667 1.33325H10.0003C8.16033 1.33325 6.66699 2.82659 6.66699 4.66658V27.3333C6.66699 29.1733 8.16033 30.6666 10.0003 30.6666H20.667C22.507 30.6666 24.0003 29.1733 24.0003 27.3333V4.66658C24.0003 2.82659 22.507 1.33325 20.667 1.33325ZM15.3337 29.3333C14.227 29.3333 13.3337 28.4399 13.3337 27.3333C13.3337 26.2266 14.227 25.3333 15.3337 25.3333C16.4403 25.3333 17.3337 26.2266 17.3337 27.3333C17.3337 28.4399 16.4403 29.3333 15.3337 29.3333ZM21.3337 23.9999H9.33366V5.33325H21.3337V23.9999Z" fill="white"/>
</g>
</svg>
