<svg width="37" height="33" viewBox="0 0 37 33" fill="none" xmlns="http://www.w3.org/2000/svg">
<g id="bi:laptop-fill">
<path id="Vector" d="M5.78125 8C4.86128 8 3.97899 8.32595 3.32847 8.90614C2.67796 9.48633 2.3125 10.2732 2.3125 11.0938V28.625H34.6875V11.0938C34.6875 10.2732 34.322 9.48633 33.6715 8.90614C33.021 8.32595 32.1387 8 31.2188 8H5.78125ZM0 29.6562H37C37 30.4768 36.6345 31.2637 35.984 31.8439C35.3335 32.4241 34.4512 32.75 33.5312 32.75H3.46875C2.54878 32.75 1.66649 32.4241 1.01597 31.8439C0.365457 31.2637 0 30.4768 0 29.6562H0Z" fill="#E1E65C"/>
</g>
</svg>
