<svg width="32" height="32" viewBox="0 0 32 32" fill="none" xmlns="http://www.w3.org/2000/svg">
<g id="card_membership_black_24dp 1" clip-path="url(#clip0_3_177)">
<path id="Vector" d="M26.667 2.66675H5.33366C3.85366 2.66675 2.66699 3.85341 2.66699 5.33341V20.0001C2.66699 21.4801 3.85366 22.6667 5.33366 22.6667H10.667V29.3334L16.0003 26.6667L21.3337 29.3334V22.6667H26.667C28.147 22.6667 29.3337 21.4801 29.3337 20.0001V5.33341C29.3337 3.85341 28.147 2.66675 26.667 2.66675ZM26.667 20.0001H5.33366V17.3334H26.667V20.0001ZM26.667 13.3334H5.33366V6.66675C5.33366 5.93341 5.93366 5.33341 6.66699 5.33341H25.3337C26.067 5.33341 26.667 5.93341 26.667 6.66675V13.3334Z" fill="white"/>
</g>
<defs>
<clipPath id="clip0_3_177">
<rect width="32" height="32" fill="white"/>
</clipPath>
</defs>
</svg>
