<svg width="32" height="32" viewBox="0 0 32 32" fill="none" xmlns="http://www.w3.org/2000/svg">
<g id="delivery_dining_black_24dp 1" clip-path="url(#clip0_3_184)">
<path id="Vector" d="M14.2315 1.0045L14.3815 1.03L27.1315 4.03C27.3528 4.08177 27.5532 4.19933 27.7063 4.36722C27.8595 4.5351 27.9582 4.74542 27.9895 4.9705L28 5.125V26.875C28.0001 27.1023 27.9313 27.3242 27.8028 27.5117C27.6743 27.6991 27.492 27.8432 27.28 27.925L27.133 27.97L14.383 30.97C14.2304 31.006 14.0721 31.0096 13.918 30.9808C13.764 30.9519 13.6177 30.8912 13.4884 30.8025C13.3592 30.7139 13.2499 30.5992 13.1676 30.4658C13.0853 30.3324 13.0318 30.1833 13.0105 30.028L13 29.875V2.125C12.9998 1.83352 13.1128 1.55334 13.3151 1.34349C13.5174 1.13364 13.7932 1.01049 14.0845 1L14.2315 1.0045ZM15.25 3.5455V28.4545L25.75 25.984V6.016L15.25 3.5455ZM11.5 4V6.25H6.25V25.75H11.5V28H5.125C4.85314 28 4.59049 27.9016 4.3856 27.7229C4.18072 27.5442 4.04747 27.2974 4.0105 27.028L4 26.875V5.125C4.00001 4.85315 4.09846 4.59049 4.27715 4.38561C4.45584 4.18072 4.70267 4.04748 4.972 4.0105L5.125 4H11.5ZM19 14.5C19.3978 14.5 19.7794 14.658 20.0607 14.9394C20.342 15.2207 20.5 15.6022 20.5 16C20.5 16.3978 20.342 16.7794 20.0607 17.0607C19.7794 17.342 19.3978 17.5 19 17.5C18.6022 17.5 18.2206 17.342 17.9393 17.0607C17.658 16.7794 17.5 16.3978 17.5 16C17.5 15.6022 17.658 15.2207 17.9393 14.9394C18.2206 14.658 18.6022 14.5 19 14.5Z" fill="white"/>
</g>
<defs>
<clipPath id="clip0_3_184">
<rect width="32" height="32" fill="white"/>
</clipPath>
</defs>
</svg>
