<svg width="32" height="32" viewBox="0 0 32 32" fill="none" xmlns="http://www.w3.org/2000/svg">
<g id="receipt_long_black_24dp (1) 1" clip-path="url(#clip0_3_157)">
<g id="Group">
<path id="Vector" d="M18.6667 12.3334H13.3333C12.6 12.3334 12 11.7334 12 11.0001C12 10.2667 12.6 9.66675 13.3333 9.66675H18.6667C19.4 9.66675 20 10.2667 20 11.0001C20 11.7334 19.4 12.3334 18.6667 12.3334Z" fill="white"/>
<path id="Vector_2" d="M18.6667 16.3334H13.3333C12.6 16.3334 12 15.7334 12 15.0001C12 14.2667 12.6 13.6667 13.3333 13.6667H18.6667C19.4 13.6667 20 14.2667 20 15.0001C20 15.7334 19.4 16.3334 18.6667 16.3334Z" fill="white"/>
<path id="Vector_3" d="M26 5L24 3L22 5L20 3L18 5L16 3L14 5L12 3L10 5L8 3V21.6667H5.33333C4.6 21.6667 4 22.2667 4 23V25.6667C4 27.88 5.78667 29.6667 8 29.6667H24C26.2133 29.6667 28 27.88 28 25.6667V3L26 5ZM20 27H8C7.26667 27 6.66667 26.4 6.66667 25.6667V24.3333H10.6667H16H20V27ZM25.3333 25.6667C25.3333 26.4 24.7333 27 24 27C23.2667 27 22.6667 26.4 22.6667 25.6667V23C22.6667 22.2667 22.0667 21.6667 21.3333 21.6667H18.6667H16H10.6667V7H25.3333V25.6667Z" fill="white"/>
<path id="Vector_4" d="M22.6668 12.3334C23.4032 12.3334 24.0002 11.7365 24.0002 11.0001C24.0002 10.2637 23.4032 9.66675 22.6668 9.66675C21.9304 9.66675 21.3335 10.2637 21.3335 11.0001C21.3335 11.7365 21.9304 12.3334 22.6668 12.3334Z" fill="white"/>
<path id="Vector_5" d="M22.6668 16.3334C23.4032 16.3334 24.0002 15.7365 24.0002 15.0001C24.0002 14.2637 23.4032 13.6667 22.6668 13.6667C21.9304 13.6667 21.3335 14.2637 21.3335 15.0001C21.3335 15.7365 21.9304 16.3334 22.6668 16.3334Z" fill="white"/>
</g>
</g>
<defs>
<clipPath id="clip0_3_157">
<rect width="32" height="32" fill="white"/>
</clipPath>
</defs>
</svg>
