<svg width="35" height="35" viewBox="0 0 35 35" fill="none" xmlns="http://www.w3.org/2000/svg">
<path id="Vector" d="M32.3939 26.4808V22.1542C32.3939 20.4261 31.7074 18.7687 30.4856 17.5468C29.2637 16.3248 27.6065 15.6383 25.8785 15.6383H22.1555C21.4149 15.6383 20.7047 15.3441 20.1811 14.8204C19.6574 14.2967 19.3632 13.5864 19.3632 12.8457V8.51915C20.1399 8.16438 20.7984 7.59402 21.2604 6.87588C21.7224 6.15774 21.9684 5.32202 21.9694 4.46808C21.9694 3.28307 21.4987 2.1466 20.6608 1.30867C19.823 0.470743 18.6866 0 17.5017 0C16.3168 0 15.1804 0.470743 14.3426 1.30867C13.5047 2.1466 13.034 3.28307 13.034 4.46808C13.034 6.26835 14.1063 7.8117 15.6402 8.51915V12.8457C15.6402 13.5864 15.346 14.2967 14.8223 14.8204C14.2987 15.3441 13.5885 15.6383 12.8479 15.6383H9.12486C7.39688 15.6383 5.73969 16.3248 4.51783 17.5468C3.29597 18.7687 2.60953 20.4261 2.60953 22.1542V26.4808C1.68206 26.9038 0.927459 27.6318 0.471365 28.5435C0.0152717 29.4553 -0.114789 30.4957 0.102837 31.4917C0.320464 32.4876 0.872646 33.379 1.66744 34.0173C2.46224 34.6557 3.45169 35.0025 4.47105 35C5.48937 35.0005 6.47723 34.6527 7.27059 34.0142C8.06396 33.3758 8.61511 32.4851 8.83251 31.4902C9.04991 30.4953 8.9205 29.4559 8.46575 28.5447C8.011 27.6334 7.25828 26.9052 6.33257 26.4808V22.1542C6.33257 21.4136 6.62676 20.7033 7.15041 20.1796C7.67407 19.6559 8.3843 19.3617 9.12486 19.3617H12.8479C13.8513 19.3617 14.7913 19.1159 15.6402 18.7101V26.4808C14.7127 26.9038 13.9581 27.6318 13.502 28.5435C13.0459 29.4553 12.9159 30.4957 13.1335 31.4917C13.3511 32.4876 13.9033 33.379 14.6981 34.0173C15.4929 34.6557 16.4823 35.0025 17.5017 35C18.52 35.0005 19.5079 34.6527 20.3012 34.0142C21.0946 33.3758 21.6458 32.4851 21.8632 31.4902C22.0806 30.4953 21.9511 29.4559 21.4964 28.5447C21.0416 27.6334 20.2889 26.9052 19.3632 26.4808V18.7101C20.2121 19.1159 21.1521 19.3617 22.1555 19.3617H25.8785C26.6191 19.3617 27.3293 19.6559 27.853 20.1796C28.3766 20.7033 28.6708 21.4136 28.6708 22.1542V26.4808C27.8941 26.8356 27.2357 27.406 26.7737 28.1241C26.3117 28.8422 26.0656 29.678 26.0647 30.5319C26.0647 31.7169 26.5354 32.8534 27.3732 33.6913C28.2111 34.5292 29.3475 35 30.5323 35C31.7172 35 32.8536 34.5292 33.6915 33.6913C34.5293 32.8534 35 31.7169 35 30.5319C35 28.7316 33.9296 27.1883 32.3939 26.4808ZM17.5017 1.88963C18.185 1.88963 18.8403 2.16109 19.3235 2.64429C19.8066 3.1275 20.078 3.78287 20.078 4.46622C20.078 5.14958 19.8066 5.80494 19.3235 6.28815C18.8403 6.77135 18.185 7.04282 17.5017 7.04282C16.8184 7.04282 16.1631 6.77135 15.6799 6.28815C15.1968 5.80494 14.9254 5.14958 14.9254 4.46622C14.9254 3.78287 15.1968 3.1275 15.6799 2.64429C16.1631 2.16109 16.8184 1.88963 17.5017 1.88963ZM4.47105 33.1104C4.13248 33.1104 3.79722 33.0437 3.48442 32.9141C3.17161 32.7845 2.88739 32.5946 2.64798 32.3551C2.40858 32.1157 2.21867 31.8315 2.0891 31.5186C1.95953 31.2058 1.89285 30.8705 1.89285 30.5319C1.89285 30.1933 1.95953 29.858 2.0891 29.5452C2.21867 29.2323 2.40858 28.9481 2.64798 28.7087C2.88739 28.4692 3.17161 28.2793 3.48442 28.1497C3.79722 28.0201 4.13248 27.9534 4.47105 27.9534C5.15484 27.9534 5.81061 28.2251 6.29412 28.7087C6.77763 29.1922 7.04926 29.8481 7.04926 30.5319C7.04926 31.2158 6.77763 31.8716 6.29412 32.3551C5.81061 32.8387 5.15484 33.1104 4.47105 33.1104ZM17.5017 33.1104C17.1631 33.1104 16.8279 33.0437 16.5151 32.9141C16.2023 32.7845 15.918 32.5946 15.6786 32.3551C15.4392 32.1157 15.2493 31.8315 15.1197 31.5186C14.9902 31.2058 14.9235 30.8705 14.9235 30.5319C14.9235 30.1933 14.9902 29.858 15.1197 29.5452C15.2493 29.2323 15.4392 28.9481 15.6786 28.7087C15.918 28.4692 16.2023 28.2793 16.5151 28.1497C16.8279 28.0201 17.1631 27.9534 17.5017 27.9534C18.1855 27.9534 18.8413 28.2251 19.3248 28.7087C19.8083 29.1922 20.0799 29.8481 20.0799 30.5319C20.0799 31.2158 19.8083 31.8716 19.3248 32.3551C18.8413 32.8387 18.1855 33.1104 17.5017 33.1104ZM30.5323 33.1104C30.1938 33.1104 29.8585 33.0437 29.5457 32.9141C29.2329 32.7845 28.9487 32.5946 28.7093 32.3551C28.4699 32.1157 28.28 31.8315 28.1504 31.5186C28.0208 31.2058 27.9541 30.8705 27.9541 30.5319C27.9541 30.1933 28.0208 29.858 28.1504 29.5452C28.28 29.2323 28.4699 28.9481 28.7093 28.7087C28.9487 28.4692 29.2329 28.2793 29.5457 28.1497C29.8585 28.0201 30.1938 27.9534 30.5323 27.9534C31.2161 27.9534 31.8719 28.2251 32.3554 28.7087C32.8389 29.1922 33.1106 29.8481 33.1106 30.5319C33.1106 31.2158 32.8389 31.8716 32.3554 32.3551C31.8719 32.8387 31.2161 33.1104 30.5323 33.1104Z" fill="#E1E65C"/>
</svg>
